<svg xmlns="http://www.w3.org/2000/svg" width="30" height="24.383" viewBox="0 0 30 24.383">
  <path id="Icon_simple-twitter" data-name="Icon simple-twitter" d="M29.941,6.273a12.5,12.5,0,0,1-3.531.969,6.2,6.2,0,0,0,2.7-3.4,12.7,12.7,0,0,1-3.909,1.48,6.148,6.148,0,0,0-10.638,4.2,6.293,6.293,0,0,0,.159,1.4A17.418,17.418,0,0,1,2.05,4.513a6.027,6.027,0,0,0-.832,3.094,6.151,6.151,0,0,0,2.735,5.12,6.13,6.13,0,0,1-2.785-.77v.076A6.153,6.153,0,0,0,6.1,18.066a6.206,6.206,0,0,1-2.765.106A6.171,6.171,0,0,0,9.09,22.443a12.334,12.334,0,0,1-7.627,2.631A13.053,13.053,0,0,1,0,24.991a17.494,17.494,0,0,0,9.446,2.761c11.317,0,17.5-9.37,17.5-17.482,0-.261,0-.525-.019-.787A12.419,12.419,0,0,0,30,6.3l-.059-.025Z" transform="translate(0 -3.369)" fill="#fff"/>
</svg>
