<svg id="icon_unilever" xmlns="http://www.w3.org/2000/svg" width="76.231" height="84.273" viewBox="0 0 76.231 84.273">
  <path id="Trazado_33" data-name="Trazado 33" d="M67.491,17.265c.316,2.211,3.632,5.158,4.527,5.106.579,0,.842-2.9.842-5.106,0-1.263.053-2.263-.579-2.527-1.105,2.158-3.9,2.579-4.79,2.527Zm.158-1c2.421,0,4.632-1.948,4.632-3.632a1.455,1.455,0,0,0-1.316-1.579,1.029,1.029,0,0,1,.211.737c0,1.263-1.948,2.685-4.053,2.685-.79,0-1,.526-1,.79,0,.737.632,1,1.526,1Zm-.526-2.632a1.016,1.016,0,0,1-1.053-.526c-.211-.421-.158-1.105-.526-1.369a4.515,4.515,0,0,0,1.158.105c1.053,0,2.053-.737,2.79-.737a.6.6,0,0,1,.684.632c0,1.053-2.053,1.895-3.053,1.895Zm-51.9,18.213c.79,0,.632-4.843,1.895-4.843.316,0,.421.316.421.684,0,1.105-.526,2.685-.526,3.579,0,.421.105.579.316.579.579,0,1.526-5.316,2.474-5.316.316,0,.421.316.421.579,0,1.105-1.421,4.316-1.421,5.211,0,.158.053.263.158.263.579,0,1.737-2.527,2.106-3.737.211-.632.474-1,.737-1,.211,0,.421.263.421.79,0,1.263-1.158,4.211-2.158,6.159-.79,1.526-2,3.737-2,4.948a2.437,2.437,0,0,0,1,2.053c-1.474-.105-2.106-.211-2.632-1.369-2.474,4.948,4.579,4.474,2.158,8.843-.421-.79-3.948-1.579-3.948-6.211,0-3.948,3.474-6.317,3.474-7.948a1.018,1.018,0,0,0-.421-.842c-.79-.632-.79-1.211-1.369-1.211-.421,0-1,1-.421,1.948.211.316.368.474.368.79,0,.632-1,2.369-1.737,2.369s-1.263-1.79-1.263-4.685c0-2.579.579-5.106,1.316-5.106.211,0,.263.158.263.316,0,.316-.105.895-.105,1.948,0,1.105.263,1.211.474,1.211ZM50.752,9.054c.368,0,.421.895.526,1.421.053.263.105.316.211.316.263,0,.737-1.053,1-1.053.421,0,1.632,1.211,3.579,1.211a5.3,5.3,0,0,0,5.474-5.474c0-3.369-2.369-5.316-5.632-5.316-1.579,0-2.685.79-3.316.79-.368,0-.947-.895-1.211-.895-.105,0-.211.211-.211.632,0,.263,0,1.053-.263,1.053-.579,0-2.737-1.579-2.737-1,0,.526,1.421,2.158,1.421,2.579s-1.421.79-1.421,1.105c0,.526,1.526.579,1.526,1.263,0,.632-1.579,1.158-1.579,1.632,0,.421,1.579.105,1.579.579S48.541,10,48.541,10.475c0,.105,0,.105.105.105.474-.053,1.79-1.526,2.106-1.526ZM21.011,43.321a.919.919,0,0,1,.79-.947.929.929,0,0,1,1,.79.964.964,0,0,1-.79,1,.938.938,0,0,1-1-.842Zm-2.579.737a1.572,1.572,0,0,0,1.684,1.316,1.744,1.744,0,0,0,.79-.211,1.428,1.428,0,0,0,1.632,1.105,1.457,1.457,0,0,0,1.369-1.632.889.889,0,0,0-.158-.526h.158a1.6,1.6,0,0,0,1.369-1.632,1.554,1.554,0,0,0-1.632-1.369,1.366,1.366,0,0,0-.737.316,1.534,1.534,0,0,0-1.684-1.158,1.579,1.579,0,0,0-1.369,1.684,1.953,1.953,0,0,0,.105.474H19.8a1.431,1.431,0,0,0-1.369,1.632ZM70.122,1.474A.579.579,0,1,0,70.7.895a.584.584,0,0,0-.579.579Zm-12.949,22a.974.974,0,1,0,.947-1,1.07,1.07,0,0,0-.947,1Zm.053,2.948a1.105,1.105,0,1,0,1.105-1.105,1.112,1.112,0,0,0-1.105,1.105ZM53.91,28.372a1.579,1.579,0,1,0,1.579-1.579,1.619,1.619,0,0,0-1.579,1.579Zm.842-3.264a.947.947,0,1,0,.947-.947.979.979,0,0,0-.947.947Zm-3,1.842A.947.947,0,1,0,52.7,26a.976.976,0,0,0-.947.947Zm2.369-5.422a1.474,1.474,0,1,0,1.474-1.474,1.506,1.506,0,0,0-1.474,1.474Zm1.737-2.842a.922.922,0,0,0,.895.895.887.887,0,0,0,.895-.895.895.895,0,1,0-1.79,0ZM51.647,20.9a.887.887,0,0,0,.895.895.895.895,0,0,0,0-1.79.962.962,0,0,0-.895.895Zm-.105,3.053a1.421,1.421,0,1,0,1.421-1.421,1.415,1.415,0,0,0-1.421,1.421Zm-2.948,1.474a1.316,1.316,0,1,0,1.316-1.316,1.337,1.337,0,0,0-1.316,1.316Zm.79-3.264a.947.947,0,1,0,.947-.947.944.944,0,0,0-.947.947ZM46.33,56.375a.947.947,0,1,0,.947-.947.944.944,0,0,0-.947.947Zm-25-38.478a.947.947,0,1,0,.947-.947.944.944,0,0,0-.947.947Zm-1.211-2.106a.947.947,0,1,0,.947-.947,1.018,1.018,0,0,0-.947.947Zm1,22.845c1,0,1.79-.737,1.79-2.316V33.951a3.835,3.835,0,0,1,.684-2.632,5.721,5.721,0,0,0-.053.947c0,2,1.105,3.369,1.105,5.316,0,.737-.211,1.105-.79,1.105-.526,0-.474-.474-.579-.474s-.211.316-.211.632A1.282,1.282,0,0,0,24.38,40.11a1.621,1.621,0,0,0,1.526-1.632c0-2.106-1.632-4.422-1.632-6.632a5.25,5.25,0,0,1,.474-2.158c0,4.632,3.948,8,3.948,9.9a.775.775,0,0,1-.79.79.763.763,0,0,1-.79-.737c0-.158,0-.211-.105-.211a1.159,1.159,0,0,0-.579,1.053,1.719,1.719,0,0,0,1.79,1.684,2.061,2.061,0,0,0,2.053-2.106c0-2.421-4.737-6.106-4.737-10.054a5.368,5.368,0,0,1,.579-2.579,7.942,7.942,0,0,0-4,6.9c0,2-.053,3-1.105,3-.526,0-.684-.474-.842-.474s-.211.421-.211.526a1.136,1.136,0,0,0,1.158,1.263ZM61.385,15.475c1,0,1.79-.474,1.79-.737,0-.105-.158-.158-.421-.158A10.4,10.4,0,0,1,60.7,14.37c-1-.158-1.737-.526-2-.526-.105,0-.158.053-.158.105,0,.579,1.105,1.526,2.842,1.526Zm-5.106-2.948c.316-.211,1.579.105,3.316-.737a1.372,1.372,0,0,1,.579-.158c.79,0,.579.947,1.369.947.579,0,1.316-.474,1.79-.474.684,0,1.684,2.158,1.684,3.211,0,1.158-1.79,1.895-3.9,1.895a4.938,4.938,0,0,1-4.948-4.422c0-.211.053-.211.105-.263ZM21.643,47.374a3.358,3.358,0,0,0-2,3.316,6.48,6.48,0,0,0,6.474,5.79c3.369,0,4.211-2.369,4.211-3.948,0-3.527-2.158-5.948-4.948-5.948a2.787,2.787,0,0,0-2.9,2.737,3.86,3.86,0,0,0,3.948,3.843,1.948,1.948,0,0,0,2.053-2,2.554,2.554,0,0,0-2.369-2.474.691.691,0,0,0-.737.737c0,.579.79,1.105,1.737,1.105a1.321,1.321,0,0,0,.526-.105q0,.158,0,.316c0,.526-.526.842-1.316.842a2.257,2.257,0,0,1-2.316-2.263c0-.842.737-1.421,1.79-1.421a3.487,3.487,0,0,1,3.316,3.685c0,1.632-.895,2.579-2.737,2.579-3.737-.053-5.58-3.369-4.737-6.79ZM19.274,22.16a2.227,2.227,0,0,0-1.632,1.948,1.356,1.356,0,0,0,1.474,1.369,1.7,1.7,0,0,0,.895-.211,2.776,2.776,0,0,1-.895-2,4.536,4.536,0,0,1,.158-1.105Zm-5.685.316v.368c0,1.105.579,1.684,1.369,1.684A2.515,2.515,0,0,0,16.8,23.424a4.528,4.528,0,0,1-.842.053,2.811,2.811,0,0,1-2.369-1Zm-.79,2.106c0,1.79.526,2.579,1.474,2.579a5.213,5.213,0,0,0,2.948-1.579,10.117,10.117,0,0,1-2.211.368A2.458,2.458,0,0,1,12.8,24.582ZM48.12,61.007a8.469,8.469,0,0,0,1.369-.105c.368,0,.368.211.368.368,0,.526-1.158,1.158-3.158,1.158a2.027,2.027,0,0,1-2.106-1.316,9.288,9.288,0,0,1-4.685,1.421c-4.737,0-5.948-2.053-7.475-2.737-1.158-.526-2.9.474-5.316-2.211a7.853,7.853,0,0,0,1.105.105c2.158,0,3.264-1.053,3.264-2.737a2.563,2.563,0,0,0-.053-.632,4.584,4.584,0,0,1,2.474,3.316c.053.211,1,.421,1.579.421a1.888,1.888,0,0,0,2.053-1.737c2.79-.211,4.685-1.895,5.053-3.948a5.285,5.285,0,0,1,2.421,1.684,3.565,3.565,0,0,1,1.369-.211,10.437,10.437,0,0,1,2.579.421c.053-.316.105-.684.579-.684.684,0,.526.79.737,1.211.105.211.684.368.684.842a.578.578,0,0,1-.579.579.394.394,0,0,1-.263-.053c-.474.158-.474,3.527-2.421,3.527a3.849,3.849,0,0,1-3.316-2.685,1.061,1.061,0,0,0-.842-.737c-.368,0-.579.053-1,.579a8.041,8.041,0,0,1-5.9,2.579c-.79,0-1.421-.053-1.579-.053-.105,0-.105,0-.105.053,0,.158.79.79,2.527.79,4.106,0,5.106-2.316,5.738-2.316a.522.522,0,0,1,.526.368,4.66,4.66,0,0,0,4.369,2.737ZM34.96,14.37c1.526,0,2.211,1.316,2.211,2.79,0,.632-.211,1.579-.474,1.579-.316,0-.263-.526-.316-1-.053-.632-.158-.79-.368-.79-.421,0-.632.947-.632,1.79,0,.526.105,1.158.526,1.158a.845.845,0,0,0,.579-.263,2.11,2.11,0,0,1-2,2c-2.053,0-2.79-2.369-3.053-3.79a5.578,5.578,0,0,1-4.422,2.263,2.59,2.59,0,0,1-2.737-2.737c0-.421.158-1.421.632-1.421.579,0,.053,1.895,1.211,1.895.263,0,.79-.211,1.053-1a4.48,4.48,0,0,0,.263-1.369c0-.632-.158-1-.579-1a1.788,1.788,0,0,0-1.053.474,3.483,3.483,0,0,1,3.369-2.527c1.842,0,2.79,1.632,2.79,3.421a3.984,3.984,0,0,1-.053.79c.79-1.316,1.842-2.263,3.053-2.263ZM29.118.526c0-.158-.684-.263-1.632-.263-1.526,0-1.316,1.263-2.474,1.263-1.211,0-.895-1.316-2.421-1.316-.947,0-1.79.158-1.79.368,0,.263,1.053.158,1.053.895,0,.79-2.369,1.053-2.369,1.526,0,.158.211.211.421.211C20.432,3.211,21.222,3,21.8,3c.316,0,.632.053.632.368,0,.579-1.263,1.632-1.263,2.106a.193.193,0,0,0,.211.211c.474,0,1.263-1.211,2-1.211,1.211,0,.421,2.632,1.105,2.632s.368-2.579,1.369-2.579c.79,0,1.421,1.79,1.948,1.79a.249.249,0,0,0,.263-.263c0-.474-.684-1.474-.684-2.158,0-.421.263-.579.632-.579.526,0,1.263.316,1.632.316.158,0,.263-.053.263-.211,0-.579-2.053-1.158-2.053-1.895.105-.684,1.263-.684,1.263-1Zm33.056,45.69c-.474,0-3.158,3.579-4.9,3.579-.421,0-.79-.79-.79-1.369,0-.316.211-.579.947-.737,4-.895,3.106-3.9,6.527-3.9a3.862,3.862,0,0,1,3.948,4.158c0,3.053-4.369,6.9-5,6.9-.526,0-1.105-.79-1.105-1.263,0-.158.053-.368.526-.579,2.211-.895,3.527-2.948,3.527-3.948a.426.426,0,0,0-.421-.474c-.421,0-2.106,3.843-3.948,3.843-1.316,0-2.632-1.158-2.632-1.737,0-.947,3.737-2.632,3.737-3.948,0-.526-.211-.526-.421-.526ZM64.7,44.795c-.316,0-.684.263-.684.895a1.4,1.4,0,0,0,.842,1.263,1.317,1.317,0,0,0,.684.211c.684,0,1.211-.211,1.211-.737,0-.79-1.053-1.632-2.053-1.632ZM34.592,2.9c0,.421,1.474,1.316,2.158,1.316.368,0,.526-.526.526-1.105,0-.684-.316-.737-.895-.737-.842,0-1.79.211-1.79.526Zm2.421,4.579c0-1.369-3.79-3.948-3.79-5V2.369c.263-.79,3.421-1.316,3.421-1.948,0-.316-.579-.316-.842-.316-2.158,0-5.316.79-5.316,1.579s2.842,2.737,2.842,3.685c0,.263-.158.368-.421.368-.79,0-2.527-.947-3.316-.947-.368,0-.526.263-.526.632,0,1.105,1.316,3.211,1.316,3.843,0,.053,0,.158-.105.158-.421,0-2.369-2.316-3.106-2.316-.263,0-.263.368-.263.842v.79c0,.526,0,.842-.263.842-.579,0-.895-1.684-1.474-1.684s-.737,3-1.316,3c-.684,0-.105-3.316-.737-3.316-.737,0-1.526,2.211-2.053,2.211-.211,0-.211-.211-.211-.368,0-.684.421-1.737.421-2.421,0-.316-.105-.526-.368-.526-.737,0-2.316,1.158-2.9,1.158-.105,0-.211-.053-.211-.158,0-.579,2.527-2.316,2.527-3.106s-3.474-.263-3.474-1.158c0-.737,2.474-1.526,2.474-2.263C19.327.263,16.379,0,15.221,0c-1.369,0-2.106.158-2.106.579,0,.579,3.106.79,3.106,1.316S13.011,3.79,13.011,4.579c0,.684,4.527.053,4.527.79,0,.79-3.948,4.211-3.948,5.316a.373.373,0,0,0,.421.368c1.211,0,4.316-2.316,5.211-2.316.316,0,.316.368.316.684,0,.579-.211,1.526-.211,2.211,0,.526.158.895.579.895.842,0,1.632-1.474,2.211-1.474.737,0,.316,4.316,1.421,4.316.947,0,1.369-4.632,1.948-4.632s1.105,1.369,1.684,1.369c.684,0,.368-2.369,1.105-2.369.79,0,3.158,2.79,4.158,2.79.316,0,.421-.263.421-.579,0-1.211-1.737-4-1.737-4.9,0-.211.053-.316.316-.316C32.329,6.738,34.96,8,36.224,8c.526,0,.79-.211.79-.526Zm31.635,26.74A13.914,13.914,0,0,1,70.228,31c-.79-.368-2.79-1.211-2.79-2.579,0-1.579,2-2.842,2.421-2.842.211,0,.211.158.211.474,0,.842-.421,2.158-.421,2.9,0,.632.421,1.263.79,1.263.421,0,1.474-1.369,1.474-2.737a3.126,3.126,0,0,0-2.842-3.211c-.632,0-1.79,1-4.422,1-5,0-6.106-4.948-6.106-7.106,0-.105,0-.105.053-.105a3.476,3.476,0,0,0,2.158.579c.79,0,1.579-.211,2.737-.211,2.79,0,4,1.948,5.738,4.369,1.053.632,3.527,1.684,3.527,4.632,0,2.579-2.737,4.053-3.421,6.843,1.053-.105,1.684-2,2.79-2,.579,0,.79.421.79,1.158a5.151,5.151,0,0,1-1.684,3.527v-.368c0-.632-.263-1.579-1-1.579C69.07,35,68.7,36.267,68.07,37.32c-.684-2.369-1.579-4.527-3.211-5.79-1.632-1.316-4.474-.579-4.474-3,0-.632.421-1.579.421-2.316a1.058,1.058,0,0,0-.211-.684c2.211.842,1.421,2.316,2.79,3.843.842,1,3.211,1.895,4.579,5.9,0-.105.053-.421.053-.632,0-3.421-4.527-6.79-4.948-8.211,2.632.316,3.106.947,4.369,4.422a9.223,9.223,0,0,1,1.211,3.369ZM18.8,15.265a4.986,4.986,0,0,0,.211-1.369c0-1.105-.526-2.79-2.106-2.79a1.584,1.584,0,0,0-1.579,1.579c.053,1.842,1.895,2.579,3.474,2.579Zm-1.948,5.843a1.866,1.866,0,0,1-1.579-1.79c0-.474.368-1.053.579-1.053.105,0,.158.053.158.211a2.643,2.643,0,0,0,1.579,2.106c.053.053.105.053.105.105,0,.211-.421.421-.842.421ZM19.59,18.95c0,.316-.211.737-.579.737-.79,0-1.474-1.211-1.474-1.948,0-.421.263-.474.579-.474a.5.5,0,0,1,.368.105c.211.105.211.579.474.947.158.211.632.474.632.632Zm-.842-2.421h-.526a4.947,4.947,0,0,0-2.685.737c-2.053,1.316-1.737,3.421-2.053,3.948a.394.394,0,0,0-.053.263.453.453,0,0,0,.421.421c.211,0,.316-.053.421-.053.579,0,1.158.368,2.106.368a4.172,4.172,0,0,0,1.948-.579,4.773,4.773,0,0,0,2.316-3.264c0-.421-.368-.368-.632-.79-.316-.474-.158-.684-.368-.947a1.942,1.942,0,0,0-.895-.105Zm2.474,3.737a4.288,4.288,0,0,0-1.053,2.685,2.111,2.111,0,0,0,1.948,2.316A1.758,1.758,0,0,0,23.8,23.318a3.39,3.39,0,0,0-2.579-3.053Zm-4.948-4.474a2.8,2.8,0,0,1-1.526.526,1.743,1.743,0,0,1-1.79-1.79,1.953,1.953,0,0,1,1.211-1.842v.421a2.726,2.726,0,0,0,2.106,2.685ZM57.542,29.267a.9.9,0,0,1,1.79,0,.887.887,0,0,1-.895.895.828.828,0,0,1-.895-.895Zm.632,26.74c.105,0,.263.053.263.474a2.06,2.06,0,0,1-1.053,1.737,4.5,4.5,0,0,1-2.527.737,4.993,4.993,0,0,0,.316-1.684,1.791,1.791,0,0,0-.053-.526h.316a6,6,0,0,0,2.737-.737Zm.158-2.316c.211-.158.211-.421.211-.684V52.48c0-.684-1-1.053-2.421-1.053-1.684,0-2.579.79-2.579,1.105v1.053c0,.421,1,.895,2.263.895a3.725,3.725,0,0,0,2.527-.79Zm1.211.263a6.675,6.675,0,0,1-4.369,1.526,6.224,6.224,0,0,1-2-.368c-.211,0-.474.211-.737.526A4.98,4.98,0,0,0,51.173,58.8a1.888,1.888,0,0,0,2.053,1.842c4.316,0,7.58-2.737,7.58-4.9,0-1.263-.737-1.79-1.263-1.79Zm.842-19.529c0,.579.211,1.263.79,1.263.474,0,.895-.737.895-1.579,0-.947-.158-1.632-.158-2,0-.158.053-.211.158-.211.368,0,.684,1,1.053,1,.421,0,1.053-.79,1.316-.79.053,0,.105.105.105.105,0,.368-.526,1.105-.526,1.421,0,.263,1.369.316,1.369.526,0,.368-1.421.368-2.106.632-.632.263-1.053.632-1.053,1.105s.474.579,1.105.579a9.187,9.187,0,0,0,3-.842.113.113,0,0,1,.105.105c0,.211-.79,1-.79,1.369s1.421.842,1.421,1.105c0,.053-.105.105-.263.105-.263,0-.632-.053-.947-.053-.211,0-.368,0-.421.105-.158.211.053,1.421-.263,1.421s-1.105-2.737-2.9-2.737c-.263,0-.421.211-.421.579a3.46,3.46,0,0,0,1.79,2.527c.368.263,1.053.526,1.053.632,0,.263-1.474,0-1.474.474,0,.421.211,1.053.211,1.421,0,.105,0,.263-.158.263-.263,0-.947-1.263-1.263-1.263-.263,0-.895.79-1.158.79-.053,0-.105-.053-.105-.158,0-.526.842-1.737.842-2.948,0-.579-.053-1.79-.737-1.79-.579,0-1.158.895-1.474,1.79-.158.526-.053,2.474-.421,2.474s-.263-1.316-.737-1.316c-.368,0-1.105.632-1.369.632-.053,0-.105,0-.105-.053,0-.263.684-1.158.684-1.369,0-.368-1.526-.368-1.526-.684,0-.158.579-.263,1.158-.368,1.158-.211,2.948-1.053,2.948-2.263,0-1.369-1.316-1.948-2.158-2.474-.421-.263-.947-.526-.947-.684,0-.211.579-.211.79-.211.368,0,.684,0,.684-.316,0-.211-.053-.632-.053-.947,0-.211,0-.421.105-.421.368,0,.842,1.158,1.053,1.158.368,0,.895-.947,1.211-.947.105,0,.158.053.158.263-.053.79-.474,1.737-.474,2.579Zm-11.107-6.79c.263,1.948,2.9.947,2.9,3.369,0,.368-.105.842-.105,1.316,0,.526.053.947.421.947.421,0,.474-.263.474-.632s-.105-.842-.105-1.105a.917.917,0,0,1,.947-1c.895,0,1.579.895,2.9.895-.316,1.474-3.369,1.105-3.369,2.737,0,.79.79,1,1.369,1,.474,0,.632-.053.632-.474,0-.211-.053-.474-.053-.632a.193.193,0,0,1,.211-.211c.526,0,3,1.895,3,2.474,0,.526-2.632,1.053-3.421,1.053a.246.246,0,0,1-.263-.263c0-.158.368-.632.368-.947,0-.211-.368-.368-1.263-.368-.421,0-.79.053-.79.421,0,.632,1,1.369,1,1.948,0,.474-.263.737-1,.737-.632,0-1.579-.474-1.579-1.316,0-.632.684-1.316.684-1.684a.35.35,0,0,0-.368-.316c-.842,0-1.105,2.263-4.158,2.527a2.377,2.377,0,0,0,.895-1.948c0-.474-.105-.895-.105-1.421,0-.684.316-1.053.79-1.053.842,0,1.263,1.211,1.842,1.211a.653.653,0,0,0,.632-.684c0-1.79-3.369-1.526-3.369-4a6.742,6.742,0,0,1,.895-2.579ZM53.7,42.689a.552.552,0,0,0,.579.579.613.613,0,0,0,.579-.684c0-.474-.421-1.158-.842-1.158-.211,0-.105.263-.158.579a5.869,5.869,0,0,0-.158.684Zm-1.211-3.053a4.3,4.3,0,0,1,3.737,4A2.1,2.1,0,0,1,54.173,45.9a1.976,1.976,0,0,1-2.053-2.106c0-1,.79-2,.79-3a1.754,1.754,0,0,0-.421-1.158Zm-3.106,3.948a1.019,1.019,0,0,1,.316.684c0,.368-.158.737-.158,1.105a1.012,1.012,0,0,0,1,1.053,1.112,1.112,0,0,0,1.105-1.105c0-.895-.895-1.737-2.263-1.737Zm7.685-1.526a1.439,1.439,0,0,1,.211.737c0,.632-.421,1.263-.421,1.948a1.357,1.357,0,0,0,1.474,1.369,1.608,1.608,0,0,0,1.579-1.684c.053-1.158-1.105-2.211-2.842-2.369Zm-7.106-1.211c1.053.158,1.316.526,1.316.79,0,.526-.474.684-.895.684-.316,0-.684-.053-1.105-.053a1.728,1.728,0,0,0-1.421.579.791.791,0,0,1,.737.737c0,1.369-3.737.211-3.737,3.685,0,1.842,1.895,3.843,4.79,3.843,1.474,0,2.421-.474,2.421-1.053,0-.421-.79-.158-.79-.526,0-.158.263-.474.263-.737,0-.105-.105-.316-.263-.316a9.172,9.172,0,0,1-2.79.684c-1.263,0-2.474-.737-2.474-1.684,0-.211.105-.316.211-.316.158,0,.316.105.474.105s.158-.105.158-.368,0-1,.421-1,1.263,1.632,4.474,1.632c1.053,0,3.158-.211,3.9-.895a5.974,5.974,0,0,1-6.211,5.9,6.58,6.58,0,0,1-6.685-6.685,6.862,6.862,0,0,1,6.9-6.79c1,0,1.895.368,1.895.79.053.632-1.474.263-1.579,1ZM33.171,17.107c0-.421-.105-.474-.211-.474-.211,0-.474.263-.842.895.053.842.211,1.211.421,1.211.263-.053.632-.842.632-1.632Zm-3.211.947c.263,0,.579-.263,1.158-.947a5.413,5.413,0,0,0,.053-.947c0-.474-.211-1-.474-1-.684,0-1.053,1.842-1.053,2.369.053.263.211.526.316.526Zm3.79,2.053c.579,0,1.211-2.211,1.211-3.632,0-.316-.053-.632-.211-.632-.474,0-1.316,2.316-1.316,3.527.053.526.211.737.316.737Zm-5.685-1.263c.79,0,1.684-4.264,1.684-5,0-.211-.053-.316-.211-.316-.737,0-1.737,4.053-1.737,4.948,0,.158.053.368.263.368Zm2.527,1.737c-1,0-1.053,1.211-1.053,3.632C28.8,22.634,27.591,20.9,26.117,20.9c-1,0-1.369.632-1.369,1.79a3.984,3.984,0,0,0,.053.79.9.9,0,0,1,.947-.579,4.37,4.37,0,0,1,3,1.79,15.746,15.746,0,0,0-2.527-.316,2.774,2.774,0,0,0-1.211.211,3.094,3.094,0,0,0-1.579,2.79,4.546,4.546,0,0,0,.053.79,5,5,0,0,1,4.369-2.632,2.169,2.169,0,0,1,.632.053,3.7,3.7,0,0,0-.947,2.527c0,.368-.158.421-.421.421,0,.79.579,1.895.579,2.474a.471.471,0,0,1-.211.421c0,1,1,1.79,1,2.421a.613.613,0,0,1-.105.368c.053.421,1.211,1.158,1.316,1.421.211.474.421.526.526.526.368,0,1-.474,1-.895a.443.443,0,0,0-.211-.368,3.188,3.188,0,0,1-.842-1.474.441.441,0,0,1-.421-.316c-.105-.316-.158-1.369-.316-1.948-.316-.053-.421-.211-.421-.79,0-.316.211-1.474.211-1.895-.158,0-.316-.105-.316-.368,0-.737.737-1.316.947-2.263a3.408,3.408,0,0,1,1.632,2.842A5.3,5.3,0,0,1,31.328,30c1-.474,2.421-1.211,2.421-2.685,0-.842-.368-1.79-3-2.158a7.8,7.8,0,0,1,2.685-.474c1.474,0,2.369.474,2.527,1.526a2.794,2.794,0,0,0,.526-1.474,1.959,1.959,0,0,0-2.158-1.895,7.317,7.317,0,0,0-4,1.632c.579-1.263,1-2,1.79-2a1.028,1.028,0,0,1,.368.053c-.263-.947-1.316-1.948-1.895-1.948ZM15.8,6.106c0,.474-1.79,2-2.369,2-.211,0-.316-.263-.316-.526a1.986,1.986,0,0,1,.474-1.316,2.747,2.747,0,0,1,1.526-.421c.316.053.684.105.684.263ZM69.7,37.32c1.158,0,2.106,1.526,2.106,3.264A7.237,7.237,0,0,1,69.333,45.9c0-3.158-3.843-2.158-3.843-4.422a1.523,1.523,0,0,1,1.526-1.632,2.347,2.347,0,0,1,1.737.632A1.992,1.992,0,0,1,68.122,39,1.605,1.605,0,0,1,69.7,37.32ZM52.489,13.581a1.757,1.757,0,0,0-1.211-.474,1.866,1.866,0,0,0-1.842,1.369,1.923,1.923,0,0,1-.158-.79,2.231,2.231,0,0,1,2.369-2.263,4.065,4.065,0,0,1,2.263.79c.211,0,.474-.211.632-.211.263,0,.263.368.263.684a3.758,3.758,0,0,1-1.474,3.106,2.375,2.375,0,0,0-1.158-1.105.352.352,0,0,1-.211-.368,1.042,1.042,0,0,1,.526-.737Zm-3.527,1.684a2.477,2.477,0,0,0,1.79.842c.263,0,.579-.053.737-.053.211,0,.368.105.368.263a1.25,1.25,0,0,1-.526.895,2.459,2.459,0,0,0,.895.158,2.753,2.753,0,0,0,2.842-2.948,3.369,3.369,0,0,1-3.158,5,4.679,4.679,0,0,1-1.79-.368c-.421,0-.421.895-.737.842-.526-.105-1-1.263-1-2.527a4.075,4.075,0,0,1,.579-2.106ZM32.855,8.527c0,.79,2.9,4.79,3.474,4.79.474,0,.79-.79.79-1.526a.889.889,0,0,0-.158-.526c-.421-.579-3.369-2.9-4-2.9-.053,0-.105.105-.105.158ZM66.333,6.632c0-1.632-3.948-2.053-3.948-2.421,0-.316,2.211-.79,3.316-.842C63.964,1.158,61.49,1.369,61.49,1c0-.211,1.842-.684,3.579-.684,1.421,0,2.79.316,2.79,1.421,0,.579-.474,1.211-.474,2.158a.858.858,0,0,0,.947.947c.737,0,.895-.79.895-1.579,0-.684-.105-1.158-.105-1.526A1.547,1.547,0,0,1,70.754.105c.79,0,1,.368,2.158.368a1.736,1.736,0,0,0-.842,1.369c0,1,.632,1.632.632,3.632,0,3.685-3.421,4.948-7.632,4.948a27.973,27.973,0,0,1-3.579-.263c-.211,0-.211-.053-.211-.211,0-.316,1.632-.474,1.632-1.948A10.975,10.975,0,0,0,62.7,6.632a.226.226,0,0,1,.211-.211c.368,0,1.053,1.369,2.369,1.369a1.046,1.046,0,0,0,1.053-1.158ZM70.28,4.264c0,2.053-1.526,3.632-4.211,4.106h.842c3.158,0,4.316-1.421,4.316-2.632a1.515,1.515,0,0,0-.947-1.474ZM68.07,22.95c0-.474-1.211-.526-1.369-1.895,0-.211-.105-.579-.368-.579-.421,0-.105,1.263-.579,1.263-1.053,0-1.421-2.106-1.79-2.106-.105,0-.211.053-.211.368,0,.263.053.421.053.737s-.053.526-.368.526c-.632,0-1.211-1.474-1.737-1.474A.193.193,0,0,0,61.49,20c0,.263.474.79.474,1.053,0,.579-1.526.263-1.526.737,0,.211.211.263.474.263.474,0,1.263-.211,1.632-.211.211,0,.579.053.579.368s-.842.737-.842,1.053c0,.158.158.211.263.211.632,0,1.737-1.105,2.527-1.105.158,0,.474.053.474.263,0,.316-.79.842-.79,1.263,0,.105.053.263.211.263.421,0,1-1.105,1.79-1.105.316,0,.737.105,1,.105.263-.053.316-.158.316-.211ZM51.436,5.211c0-.263-.895-.737-.895-1,0-.053.053-.053.105-.053.263,0,.684.105,1.053.105.316,0,.368-1.316.579-1.316.158,0,.421,1.211.684,1.211.316,0,.842-.368,1.105-.368.053,0,.105,0,.105.053,0,.158-.579.79-.579,1s1.316.474,1.316.632c0,.211-1.316.211-1.316.421,0,.158.474.79.474,1,0,.053,0,.053-.053.053-.211,0-.895-.316-1.105-.316-.263,0-.684.947-.895.947-.053,0-.105-.105-.105-.211l-.053-.947c0-.105-.053-.211-.158-.211h-1c-.105,0-.158,0-.158-.053,0-.105.895-.79.895-.947Zm4.527,4.422c-1.632,0-2.685-.79-2.685-1.211a.352.352,0,0,1,.316-.368c.526,0,1.632.79,2,.79.105,0,.158-.053.158-.211,0-.421-.421-1.105-.421-1.474,0-.105.053-.158.211-.158.632,0,1.579.263,2.053.263a.193.193,0,0,0,.211-.211c0-.526-1.526-1.526-1.526-1.79s1.895-.684,1.895-1.158-2.527-.158-2.527-.579c0-.316.474-.895.474-1.158,0-.105-.105-.158-.263-.158-.211,0-1.316.421-1.79.421-.211,0-.526-.053-.526-.368,0-.526.895-1.105,2.316-1.105,2.316,0,3.685,1.579,3.685,4.211.053,3.421-2.316,4.264-3.579,4.264ZM40.277,49.8a1.027,1.027,0,0,1-.263.684,1.8,1.8,0,0,0-1.316-.737c-2.369,0-1.474,3.474-4.053,3.474a12.193,12.193,0,0,1-1.579-.158c-.158,0-.263.053-.263.211,0,.579.842,2.106,3.264,2.106,2.369,0,4.685-1.474,4.685-3.264a2.065,2.065,0,0,0-.211-.947.61.61,0,0,1,.526-.211c.368,0,.579.421.947.421a.608.608,0,0,0,.632-.632.635.635,0,0,0-.421-.632.75.75,0,0,0,.316-.632.732.732,0,0,0-.737-.79.676.676,0,0,0-.526.211c-.053-.421-.263-.79-.737-.79a.568.568,0,0,0-.579.632c.053.368.316.632.316,1.053Zm-6.264.895c-.684,0-1.737-.737-1.737-1.158a.537.537,0,0,1,.579-.526c.579,0,1.632.737,1.632,1.316,0,.158-.105.368-.474.368Zm-6.474-5.211c1.842.474,2.79,1.474,2.948,2.632a5.611,5.611,0,0,0,.842,2.527,4.128,4.128,0,0,0,2.737,1.211c.842,0,1.526-.263,1.526-1.053a3.218,3.218,0,0,0-2.79-2.737h-.579a1.058,1.058,0,0,1-.684-.211c-.368-.316-.474-2.053-1.158-3.106a2.915,2.915,0,0,0-2.737-1.474c-.79,0-1.737.421-1.737,1.105-.053.474.158.737,1.632,1.105Zm11.633-2.842c0-1.053-2.158-1.053-2.158-2.632a3.54,3.54,0,0,1,.79-1.79,2.447,2.447,0,0,0,1.737,2.211c2.053.79,2.369,1.948,2.369,3.158,0,2.106-1.474,4.685-5.211,4.685a5.272,5.272,0,0,1-5.158-4.948c0-.632.158-1.316.579-1.316.368,0,.474.263.737.579A4.8,4.8,0,0,0,36.7,43.9c1.421-.053,2.474-.632,2.474-1.263Zm.105,1.684c-.79.316-1.105.316-1.105,1.105,0,.316-.053.684-.053.895,0,.263.053.421.368.421.842,0,2.158-1.421,2.158-2.632a.427.427,0,0,0-.368-.474c-.211.053-.421.421-1,.684ZM31.907,32.583c0-1.474,3.527-2.263,3.527-4.106a2.765,2.765,0,0,0-.316-1.211c1.211.684,2.158,1.79,2.158,2.737,0,1.579-1.684,2.369-1.684,3.316,0,1.158,1.79,1.369,1.79,2.79,0,1.158-1.684,2.579-1.684,4.106A2.332,2.332,0,0,0,37.8,42.531a4.694,4.694,0,0,1-1.158.158c-2.369,0-4.737-1.948-4.737-4.211a3.842,3.842,0,0,1,1.211-2.842,3.185,3.185,0,0,0,1.737.947.458.458,0,0,0,.526-.474c-.105-.895-3.474-1.684-3.474-3.527Z" transform="translate(-6.051 0)" fill="#fff"/>
  <path id="Trazado_34" data-name="Trazado 34" d="M30.572,143.558a3.114,3.114,0,0,0,2.685-1.632,13.764,13.764,0,0,1-.895-4.211c-.263-4.264,1.369-8.211,3.158-8.317,1.316-.053,2.369,1.158,2.474,3.158.316,5.264-1.421,7.475-2.316,9.37a3.18,3.18,0,0,0,2.579,2,1.643,1.643,0,0,0,1.105-.421,3.884,3.884,0,0,1-.158-1.263c0-3.053,1.948-5.632,3.685-5.632,1.369,0,2.158,1.79,2.158,3,0,1.421-1.158,2.527-2.948,3.632a2.1,2.1,0,0,0,1.369.526c2.474,0,3.79-3,4.79-5.79.158-.526.474-1.263,1.105-1.263,1.053,0,1.474,6.9,3.211,6.9.737,0,1.369-1.526,1.369-2.685,0-.895-.316-.947-.316-2.211,0-1.421.737-2.579,1.737-2.579.632,0,.842.632.842,1.369,0,2.79-2,8-5,8-2.211,0-2.053-3.843-2.842-3.843-.895,0-2.106,3.9-6.422,3.9a2.9,2.9,0,0,1-2.053-1.053,5.215,5.215,0,0,1-2.948,1c-1.632,0-2.316-1.684-2.948-1.684-.79,0-1.684,1.684-4.264,1.684-2.106,0-2.474-2.79-3.211-2.79-.632,0-1.684,2.79-2.737,2.79-1.842,0-2.211-4.843-3.843-4.843-1.263,0-5.264,4.948-6.369,4.843a.645.645,0,0,1-.579-.79c.053-.579.579-2.211.79-3,.368-1.316.684-2.79.842-3.264a1.233,1.233,0,0,1,1.053-.79c.211,0,.263.368.316.684.211,1.105.526,2.211.895,2.211.632,0,2.632-3.9,3.843-3.9,1.421,0,1.632,6.106,3.579,6.106.632,0,1.158-.79,1.579-1.737.053-1.632.474-3.948,1.79-3.948.895,0,1.369,2.053.684,3.843a2.2,2.2,0,0,0,2.211,2.632ZM63.208,139.4a2.715,2.715,0,0,0-2.474-2.632c-1.948,0-3.9,2.158-3.9,5.106,0,2.685,1.684,3.527,3.316,3.527,2.9,0,4.632-2.369,5.58-4.316.421,1.316.684,4.316,1.79,4.316.421,0,.737-.211,1.263-1.421,1.316-2.948,2.579-6.317,4.316-6.317.632,0,.263,1.158,1.842,1.158a1.292,1.292,0,0,0,1.263-1.316c0-1-.895-1.79-2.316-1.79-4.106,0-5,6.159-5.632,6.159-1.105,0-.737-4.948-1.527-4.948-.684,0-1.053.842-1.158,1.211-.579,2.263-2.211,5.58-4.632,5.58-.579,0-1.579-.211-1.579-.79,0-.474,3.843-.579,3.843-3.527Zm-26.635-5.738c-.053-1.211-.368-1.79-1.053-1.737-.895.053-1.263,2.79-1.105,5.685.105,1.895.368,2.158.632,2.158.526,0,1.684-3.369,1.526-6.106Zm-7.106-2.527a1.291,1.291,0,0,0-1.369-1.158,1.719,1.719,0,0,0-1.526,1.948,1.3,1.3,0,0,0,1.316,1.316,1.9,1.9,0,0,0,1.579-2.106Zm13.581,8.9c0-.737-.421-1.369-.895-1.369-.421,0-1.316.421-1.316,1.842a2.506,2.506,0,0,0,.579,1.842,2.188,2.188,0,0,0,1.632-2.316Zm17.107-1.474c.895,0,1.158,1.105.947,1.737a2.819,2.819,0,0,1-2.211,1.632c-.263-.684-.368-3.369,1.263-3.369Zm-60.165.684a18.294,18.294,0,0,1,.79-6.106c.368-1.369.737-1.842,1.948-2.106.947-.158.895.842.684,2a24.109,24.109,0,0,0-.526,6.843c.158,3.158,1.632,4.369,3.211,4.369,2.369.053,3.421-1.948,3.843-4.79A7.417,7.417,0,0,0,9.78,135.4c-.105-.368-.474-1.263-.632-1.948-.158-1.684.632-2.421,1.263-2.685.79-.211,1.105.158,1.421,1.105a18.986,18.986,0,0,1,.316,5.843c-.158,3.579-1.948,7.9-6.422,7.843-3.843,0-5.527-2.527-5.738-6.317Z" transform="translate(0.022 -61.285)" fill="#fff"/>
</svg>
